<mxfile host="app.diagrams.net" modified="2023-11-22T20:46:03.795Z" agent="Mozilla/5.0 (Windows NT 10.0; Win64; x64) AppleWebKit/537.36 (KHTML, like Gecko) Chrome/119.0.0.0 Safari/537.36" etag="n39RJUQ6GVT4jzsffWf6" version="22.1.3" type="device">
  <diagram id="C5RBs43oDa-KdzZeNtuy" name="Page-1">
    <mxGraphModel dx="1719" dy="2074" grid="1" gridSize="10" guides="1" tooltips="1" connect="1" arrows="1" fold="1" page="1" pageScale="1" pageWidth="827" pageHeight="1169" math="0" shadow="0">
      <root>
        <mxCell id="WIyWlLk6GJQsqaUBKTNV-0" />
        <mxCell id="WIyWlLk6GJQsqaUBKTNV-1" parent="WIyWlLk6GJQsqaUBKTNV-0" />
        <mxCell id="Y9hDA8jvn1Iqzjb3GO8k-1" style="edgeStyle=orthogonalEdgeStyle;rounded=0;orthogonalLoop=1;jettySize=auto;html=1;entryX=0.5;entryY=0;entryDx=0;entryDy=0;" edge="1" parent="WIyWlLk6GJQsqaUBKTNV-1" source="Y9hDA8jvn1Iqzjb3GO8k-0" target="Y9hDA8jvn1Iqzjb3GO8k-5">
          <mxGeometry relative="1" as="geometry">
            <mxPoint x="414" y="-170" as="targetPoint" />
          </mxGeometry>
        </mxCell>
        <mxCell id="Y9hDA8jvn1Iqzjb3GO8k-0" value="Старт" style="ellipse;whiteSpace=wrap;html=1;" vertex="1" parent="WIyWlLk6GJQsqaUBKTNV-1">
          <mxGeometry x="354" y="-280" width="120" height="80" as="geometry" />
        </mxCell>
        <mxCell id="Y9hDA8jvn1Iqzjb3GO8k-7" style="edgeStyle=orthogonalEdgeStyle;rounded=0;orthogonalLoop=1;jettySize=auto;html=1;entryX=0.5;entryY=0;entryDx=0;entryDy=0;" edge="1" parent="WIyWlLk6GJQsqaUBKTNV-1" source="Y9hDA8jvn1Iqzjb3GO8k-5" target="Y9hDA8jvn1Iqzjb3GO8k-6">
          <mxGeometry relative="1" as="geometry" />
        </mxCell>
        <mxCell id="Y9hDA8jvn1Iqzjb3GO8k-5" value="Вывод условия задачи" style="shape=parallelogram;perimeter=parallelogramPerimeter;whiteSpace=wrap;html=1;fixedSize=1;" vertex="1" parent="WIyWlLk6GJQsqaUBKTNV-1">
          <mxGeometry x="354" y="-170" width="120" height="60" as="geometry" />
        </mxCell>
        <mxCell id="Y9hDA8jvn1Iqzjb3GO8k-30" style="edgeStyle=orthogonalEdgeStyle;rounded=0;orthogonalLoop=1;jettySize=auto;html=1;entryX=0.5;entryY=0;entryDx=0;entryDy=0;" edge="1" parent="WIyWlLk6GJQsqaUBKTNV-1" source="Y9hDA8jvn1Iqzjb3GO8k-6" target="Y9hDA8jvn1Iqzjb3GO8k-29">
          <mxGeometry relative="1" as="geometry" />
        </mxCell>
        <mxCell id="Y9hDA8jvn1Iqzjb3GO8k-6" value="int length, flag;" style="rounded=0;whiteSpace=wrap;html=1;" vertex="1" parent="WIyWlLk6GJQsqaUBKTNV-1">
          <mxGeometry x="354" y="-80" width="120" height="60" as="geometry" />
        </mxCell>
        <mxCell id="Y9hDA8jvn1Iqzjb3GO8k-18" style="edgeStyle=orthogonalEdgeStyle;rounded=0;orthogonalLoop=1;jettySize=auto;html=1;entryX=0.5;entryY=0;entryDx=0;entryDy=0;" edge="1" parent="WIyWlLk6GJQsqaUBKTNV-1" source="Y9hDA8jvn1Iqzjb3GO8k-9" target="Y9hDA8jvn1Iqzjb3GO8k-16">
          <mxGeometry relative="1" as="geometry" />
        </mxCell>
        <mxCell id="Y9hDA8jvn1Iqzjb3GO8k-9" value="exit(1);" style="rounded=0;whiteSpace=wrap;html=1;" vertex="1" parent="WIyWlLk6GJQsqaUBKTNV-1">
          <mxGeometry x="1659.94" y="-40.5" width="120" height="60" as="geometry" />
        </mxCell>
        <mxCell id="Y9hDA8jvn1Iqzjb3GO8k-21" style="edgeStyle=orthogonalEdgeStyle;rounded=0;orthogonalLoop=1;jettySize=auto;html=1;entryX=0.5;entryY=0;entryDx=0;entryDy=0;" edge="1" parent="WIyWlLk6GJQsqaUBKTNV-1" source="Y9hDA8jvn1Iqzjb3GO8k-13" target="Y9hDA8jvn1Iqzjb3GO8k-20">
          <mxGeometry relative="1" as="geometry" />
        </mxCell>
        <mxCell id="Y9hDA8jvn1Iqzjb3GO8k-49" style="edgeStyle=orthogonalEdgeStyle;rounded=0;orthogonalLoop=1;jettySize=auto;html=1;exitX=1;exitY=0.5;exitDx=0;exitDy=0;entryX=0;entryY=0.5;entryDx=0;entryDy=0;" edge="1" parent="WIyWlLk6GJQsqaUBKTNV-1" source="Y9hDA8jvn1Iqzjb3GO8k-13" target="Y9hDA8jvn1Iqzjb3GO8k-95">
          <mxGeometry relative="1" as="geometry">
            <mxPoint x="530" y="230" as="targetPoint" />
          </mxGeometry>
        </mxCell>
        <mxCell id="Y9hDA8jvn1Iqzjb3GO8k-13" value="&lt;div&gt;&lt;font style=&quot;font-size: 10px;&quot;&gt;&amp;nbsp; &amp;nbsp; length &amp;lt; 1&lt;/font&gt;&lt;/div&gt;&lt;div&gt;&lt;font style=&quot;font-size: 10px;&quot;&gt;|| flag != 1&lt;/font&gt;&lt;/div&gt;" style="rhombus;whiteSpace=wrap;html=1;" vertex="1" parent="WIyWlLk6GJQsqaUBKTNV-1">
          <mxGeometry x="374" y="190" width="80" height="80" as="geometry" />
        </mxCell>
        <mxCell id="Y9hDA8jvn1Iqzjb3GO8k-22" style="edgeStyle=orthogonalEdgeStyle;rounded=0;orthogonalLoop=1;jettySize=auto;html=1;entryX=0.5;entryY=0;entryDx=0;entryDy=0;" edge="1" parent="WIyWlLk6GJQsqaUBKTNV-1" source="Y9hDA8jvn1Iqzjb3GO8k-14" target="Y9hDA8jvn1Iqzjb3GO8k-13">
          <mxGeometry relative="1" as="geometry" />
        </mxCell>
        <mxCell id="Y9hDA8jvn1Iqzjb3GO8k-14" value="&amp;nbsp; &amp;nbsp; flag = scanf_s(&quot;%d&quot;, &amp;amp;length);" style="shape=parallelogram;perimeter=parallelogramPerimeter;whiteSpace=wrap;html=1;fixedSize=1;" vertex="1" parent="WIyWlLk6GJQsqaUBKTNV-1">
          <mxGeometry x="354" y="100" width="120" height="60" as="geometry" />
        </mxCell>
        <mxCell id="Y9hDA8jvn1Iqzjb3GO8k-17" style="edgeStyle=orthogonalEdgeStyle;rounded=0;orthogonalLoop=1;jettySize=auto;html=1;entryX=0.5;entryY=0;entryDx=0;entryDy=0;" edge="1" parent="WIyWlLk6GJQsqaUBKTNV-1" source="Y9hDA8jvn1Iqzjb3GO8k-15" target="Y9hDA8jvn1Iqzjb3GO8k-9">
          <mxGeometry relative="1" as="geometry" />
        </mxCell>
        <mxCell id="Y9hDA8jvn1Iqzjb3GO8k-15" value="&lt;div&gt;&lt;font style=&quot;font-size: 9px;&quot;&gt;&amp;nbsp; &amp;nbsp; printf(&quot;Вы все сломали. В следующий раз вводите корректные значения.&quot;);&lt;/font&gt;&lt;/div&gt;" style="shape=parallelogram;perimeter=parallelogramPerimeter;whiteSpace=wrap;html=1;fixedSize=1;" vertex="1" parent="WIyWlLk6GJQsqaUBKTNV-1">
          <mxGeometry x="1654.94" y="-130.5" width="130" height="60.5" as="geometry" />
        </mxCell>
        <mxCell id="Y9hDA8jvn1Iqzjb3GO8k-16" value="Конец" style="ellipse;whiteSpace=wrap;html=1;" vertex="1" parent="WIyWlLk6GJQsqaUBKTNV-1">
          <mxGeometry x="1659.94" y="49.5" width="120" height="80" as="geometry" />
        </mxCell>
        <mxCell id="Y9hDA8jvn1Iqzjb3GO8k-28" style="edgeStyle=orthogonalEdgeStyle;rounded=0;orthogonalLoop=1;jettySize=auto;html=1;entryX=0.5;entryY=0;entryDx=0;entryDy=0;" edge="1" parent="WIyWlLk6GJQsqaUBKTNV-1" source="Y9hDA8jvn1Iqzjb3GO8k-20" target="Y9hDA8jvn1Iqzjb3GO8k-26">
          <mxGeometry relative="1" as="geometry" />
        </mxCell>
        <mxCell id="Y9hDA8jvn1Iqzjb3GO8k-20" value="&lt;div&gt;&amp;nbsp; &amp;nbsp; int* array = (int*)malloc(length * sizeof(array[0]));&lt;/div&gt;" style="rounded=0;whiteSpace=wrap;html=1;" vertex="1" parent="WIyWlLk6GJQsqaUBKTNV-1">
          <mxGeometry x="354" y="300" width="120" height="60" as="geometry" />
        </mxCell>
        <mxCell id="Y9hDA8jvn1Iqzjb3GO8k-24" value="Да" style="text;html=1;strokeColor=none;fillColor=none;align=center;verticalAlign=middle;whiteSpace=wrap;rounded=0;" vertex="1" parent="WIyWlLk6GJQsqaUBKTNV-1">
          <mxGeometry x="460" y="200" width="40" height="30" as="geometry" />
        </mxCell>
        <mxCell id="Y9hDA8jvn1Iqzjb3GO8k-25" value="Нет" style="text;html=1;strokeColor=none;fillColor=none;align=center;verticalAlign=middle;whiteSpace=wrap;rounded=0;" vertex="1" parent="WIyWlLk6GJQsqaUBKTNV-1">
          <mxGeometry x="418" y="270" width="38" height="30" as="geometry" />
        </mxCell>
        <mxCell id="Y9hDA8jvn1Iqzjb3GO8k-51" style="edgeStyle=orthogonalEdgeStyle;rounded=0;orthogonalLoop=1;jettySize=auto;html=1;entryX=0.5;entryY=0;entryDx=0;entryDy=0;" edge="1" parent="WIyWlLk6GJQsqaUBKTNV-1" source="Y9hDA8jvn1Iqzjb3GO8k-26" target="Y9hDA8jvn1Iqzjb3GO8k-34">
          <mxGeometry relative="1" as="geometry" />
        </mxCell>
        <mxCell id="Y9hDA8jvn1Iqzjb3GO8k-26" value="&lt;div&gt;&amp;nbsp; &amp;nbsp; printf(&quot;Введите зачения индексов массива:\n&quot;);&lt;/div&gt;" style="shape=parallelogram;perimeter=parallelogramPerimeter;whiteSpace=wrap;html=1;fixedSize=1;" vertex="1" parent="WIyWlLk6GJQsqaUBKTNV-1">
          <mxGeometry x="354" y="390" width="120" height="60" as="geometry" />
        </mxCell>
        <mxCell id="Y9hDA8jvn1Iqzjb3GO8k-31" style="edgeStyle=orthogonalEdgeStyle;rounded=0;orthogonalLoop=1;jettySize=auto;html=1;entryX=0.5;entryY=0;entryDx=0;entryDy=0;" edge="1" parent="WIyWlLk6GJQsqaUBKTNV-1" source="Y9hDA8jvn1Iqzjb3GO8k-29" target="Y9hDA8jvn1Iqzjb3GO8k-14">
          <mxGeometry relative="1" as="geometry" />
        </mxCell>
        <mxCell id="Y9hDA8jvn1Iqzjb3GO8k-29" value="printf(&quot;Введите количество элементов массива:\t&quot;);" style="shape=parallelogram;perimeter=parallelogramPerimeter;whiteSpace=wrap;html=1;fixedSize=1;" vertex="1" parent="WIyWlLk6GJQsqaUBKTNV-1">
          <mxGeometry x="354" y="10" width="120" height="60" as="geometry" />
        </mxCell>
        <mxCell id="Y9hDA8jvn1Iqzjb3GO8k-38" style="edgeStyle=orthogonalEdgeStyle;rounded=0;orthogonalLoop=1;jettySize=auto;html=1;entryX=0.5;entryY=0;entryDx=0;entryDy=0;" edge="1" parent="WIyWlLk6GJQsqaUBKTNV-1" source="Y9hDA8jvn1Iqzjb3GO8k-34" target="Y9hDA8jvn1Iqzjb3GO8k-35">
          <mxGeometry relative="1" as="geometry" />
        </mxCell>
        <mxCell id="Y9hDA8jvn1Iqzjb3GO8k-34" value="int i = 0;" style="rounded=0;whiteSpace=wrap;html=1;" vertex="1" parent="WIyWlLk6GJQsqaUBKTNV-1">
          <mxGeometry x="354" y="480" width="120" height="60" as="geometry" />
        </mxCell>
        <mxCell id="Y9hDA8jvn1Iqzjb3GO8k-40" style="edgeStyle=orthogonalEdgeStyle;rounded=0;orthogonalLoop=1;jettySize=auto;html=1;exitX=0.5;exitY=1;exitDx=0;exitDy=0;entryX=0.5;entryY=0;entryDx=0;entryDy=0;" edge="1" parent="WIyWlLk6GJQsqaUBKTNV-1" source="Y9hDA8jvn1Iqzjb3GO8k-35" target="Y9hDA8jvn1Iqzjb3GO8k-39">
          <mxGeometry relative="1" as="geometry" />
        </mxCell>
        <mxCell id="Y9hDA8jvn1Iqzjb3GO8k-62" style="edgeStyle=orthogonalEdgeStyle;rounded=0;orthogonalLoop=1;jettySize=auto;html=1;entryX=0.5;entryY=0;entryDx=0;entryDy=0;" edge="1" parent="WIyWlLk6GJQsqaUBKTNV-1" source="Y9hDA8jvn1Iqzjb3GO8k-35" target="Y9hDA8jvn1Iqzjb3GO8k-63">
          <mxGeometry relative="1" as="geometry">
            <mxPoint x="414" y="1010" as="targetPoint" />
            <Array as="points">
              <mxPoint x="490" y="620" />
              <mxPoint x="490" y="1080" />
              <mxPoint x="414" y="1080" />
            </Array>
          </mxGeometry>
        </mxCell>
        <mxCell id="Y9hDA8jvn1Iqzjb3GO8k-35" value="i &amp;lt; length" style="rhombus;whiteSpace=wrap;html=1;" vertex="1" parent="WIyWlLk6GJQsqaUBKTNV-1">
          <mxGeometry x="374" y="580" width="80" height="80" as="geometry" />
        </mxCell>
        <mxCell id="Y9hDA8jvn1Iqzjb3GO8k-37" value="" style="shape=image;verticalLabelPosition=bottom;labelBackgroundColor=default;verticalAlign=top;aspect=fixed;imageAspect=0;image=https://ptpit.ru/learn/WEB_TASKS42/42/2003_04/tur2/15/1/pic/ex_cikl.gif;" vertex="1" parent="WIyWlLk6GJQsqaUBKTNV-1">
          <mxGeometry x="1840" y="-234.5" width="181" height="448" as="geometry" />
        </mxCell>
        <mxCell id="Y9hDA8jvn1Iqzjb3GO8k-88" style="edgeStyle=orthogonalEdgeStyle;rounded=0;orthogonalLoop=1;jettySize=auto;html=1;exitX=0.5;exitY=1;exitDx=0;exitDy=0;entryX=0.5;entryY=0;entryDx=0;entryDy=0;" edge="1" parent="WIyWlLk6GJQsqaUBKTNV-1" source="Y9hDA8jvn1Iqzjb3GO8k-39" target="Y9hDA8jvn1Iqzjb3GO8k-86">
          <mxGeometry relative="1" as="geometry" />
        </mxCell>
        <mxCell id="Y9hDA8jvn1Iqzjb3GO8k-39" value="flag = &lt;br&gt;scanf_s(&quot;%d&quot;, &amp;amp;array[i]);" style="shape=parallelogram;perimeter=parallelogramPerimeter;whiteSpace=wrap;html=1;fixedSize=1;" vertex="1" parent="WIyWlLk6GJQsqaUBKTNV-1">
          <mxGeometry x="354" y="690" width="120" height="60" as="geometry" />
        </mxCell>
        <mxCell id="Y9hDA8jvn1Iqzjb3GO8k-41" value="Да" style="text;html=1;strokeColor=none;fillColor=none;align=center;verticalAlign=middle;whiteSpace=wrap;rounded=0;" vertex="1" parent="WIyWlLk6GJQsqaUBKTNV-1">
          <mxGeometry x="414" y="660" width="60" height="30" as="geometry" />
        </mxCell>
        <mxCell id="Y9hDA8jvn1Iqzjb3GO8k-42" value="Нет" style="text;html=1;strokeColor=none;fillColor=none;align=center;verticalAlign=middle;whiteSpace=wrap;rounded=0;" vertex="1" parent="WIyWlLk6GJQsqaUBKTNV-1">
          <mxGeometry x="454" y="584.5" width="40" height="30" as="geometry" />
        </mxCell>
        <mxCell id="Y9hDA8jvn1Iqzjb3GO8k-54" style="edgeStyle=orthogonalEdgeStyle;rounded=0;orthogonalLoop=1;jettySize=auto;html=1;entryX=0;entryY=0.5;entryDx=0;entryDy=0;" edge="1" parent="WIyWlLk6GJQsqaUBKTNV-1" source="Y9hDA8jvn1Iqzjb3GO8k-43" target="Y9hDA8jvn1Iqzjb3GO8k-35">
          <mxGeometry relative="1" as="geometry">
            <Array as="points">
              <mxPoint x="330" y="910" />
              <mxPoint x="330" y="620" />
            </Array>
          </mxGeometry>
        </mxCell>
        <mxCell id="Y9hDA8jvn1Iqzjb3GO8k-60" style="edgeStyle=orthogonalEdgeStyle;rounded=0;orthogonalLoop=1;jettySize=auto;html=1;entryX=0.5;entryY=0;entryDx=0;entryDy=0;" edge="1" parent="WIyWlLk6GJQsqaUBKTNV-1" source="Y9hDA8jvn1Iqzjb3GO8k-43" target="Y9hDA8jvn1Iqzjb3GO8k-96">
          <mxGeometry relative="1" as="geometry">
            <mxPoint x="414" y="980" as="targetPoint" />
          </mxGeometry>
        </mxCell>
        <mxCell id="Y9hDA8jvn1Iqzjb3GO8k-43" value="flag != 1" style="rhombus;whiteSpace=wrap;html=1;" vertex="1" parent="WIyWlLk6GJQsqaUBKTNV-1">
          <mxGeometry x="374" y="870" width="80" height="80" as="geometry" />
        </mxCell>
        <mxCell id="Y9hDA8jvn1Iqzjb3GO8k-84" style="edgeStyle=orthogonalEdgeStyle;rounded=0;orthogonalLoop=1;jettySize=auto;html=1;entryX=0.5;entryY=0;entryDx=0;entryDy=0;" edge="1" parent="WIyWlLk6GJQsqaUBKTNV-1" source="Y9hDA8jvn1Iqzjb3GO8k-47" target="Y9hDA8jvn1Iqzjb3GO8k-15">
          <mxGeometry relative="1" as="geometry" />
        </mxCell>
        <mxCell id="Y9hDA8jvn1Iqzjb3GO8k-47" value="void fail();" style="ellipse;whiteSpace=wrap;html=1;" vertex="1" parent="WIyWlLk6GJQsqaUBKTNV-1">
          <mxGeometry x="1659.94" y="-240" width="120" height="80" as="geometry" />
        </mxCell>
        <mxCell id="Y9hDA8jvn1Iqzjb3GO8k-55" value="Нет" style="text;html=1;strokeColor=none;fillColor=none;align=center;verticalAlign=middle;whiteSpace=wrap;rounded=0;" vertex="1" parent="WIyWlLk6GJQsqaUBKTNV-1">
          <mxGeometry x="340" y="880" width="40" height="30" as="geometry" />
        </mxCell>
        <mxCell id="Y9hDA8jvn1Iqzjb3GO8k-57" value="Да" style="text;html=1;strokeColor=none;fillColor=none;align=center;verticalAlign=middle;whiteSpace=wrap;rounded=0;" vertex="1" parent="WIyWlLk6GJQsqaUBKTNV-1">
          <mxGeometry x="418" y="950" width="36" height="30" as="geometry" />
        </mxCell>
        <mxCell id="Y9hDA8jvn1Iqzjb3GO8k-93" style="edgeStyle=orthogonalEdgeStyle;rounded=0;orthogonalLoop=1;jettySize=auto;html=1;entryX=0.5;entryY=0;entryDx=0;entryDy=0;" edge="1" parent="WIyWlLk6GJQsqaUBKTNV-1" source="Y9hDA8jvn1Iqzjb3GO8k-63" target="Y9hDA8jvn1Iqzjb3GO8k-94">
          <mxGeometry relative="1" as="geometry">
            <mxPoint x="414" y="1190" as="targetPoint" />
          </mxGeometry>
        </mxCell>
        <mxCell id="Y9hDA8jvn1Iqzjb3GO8k-63" value="&lt;div&gt;&amp;nbsp; &amp;nbsp; printf(&quot;Исходный массив:\n&quot;);&lt;/div&gt;" style="shape=parallelogram;perimeter=parallelogramPerimeter;whiteSpace=wrap;html=1;fixedSize=1;" vertex="1" parent="WIyWlLk6GJQsqaUBKTNV-1">
          <mxGeometry x="354" y="1100" width="120" height="60" as="geometry" />
        </mxCell>
        <mxCell id="Y9hDA8jvn1Iqzjb3GO8k-66" style="edgeStyle=orthogonalEdgeStyle;rounded=0;orthogonalLoop=1;jettySize=auto;html=1;entryX=0.5;entryY=0;entryDx=0;entryDy=0;" edge="1" parent="WIyWlLk6GJQsqaUBKTNV-1" source="Y9hDA8jvn1Iqzjb3GO8k-67" target="Y9hDA8jvn1Iqzjb3GO8k-69">
          <mxGeometry relative="1" as="geometry" />
        </mxCell>
        <mxCell id="Y9hDA8jvn1Iqzjb3GO8k-67" value="int i = 0;" style="rounded=0;whiteSpace=wrap;html=1;" vertex="1" parent="WIyWlLk6GJQsqaUBKTNV-1">
          <mxGeometry x="1465.94" y="-120" width="120" height="60" as="geometry" />
        </mxCell>
        <mxCell id="Y9hDA8jvn1Iqzjb3GO8k-68" style="edgeStyle=orthogonalEdgeStyle;rounded=0;orthogonalLoop=1;jettySize=auto;html=1;exitX=0.5;exitY=1;exitDx=0;exitDy=0;entryX=0.5;entryY=0;entryDx=0;entryDy=0;" edge="1" parent="WIyWlLk6GJQsqaUBKTNV-1" source="Y9hDA8jvn1Iqzjb3GO8k-69" target="Y9hDA8jvn1Iqzjb3GO8k-71">
          <mxGeometry relative="1" as="geometry" />
        </mxCell>
        <mxCell id="Y9hDA8jvn1Iqzjb3GO8k-81" style="edgeStyle=orthogonalEdgeStyle;rounded=0;orthogonalLoop=1;jettySize=auto;html=1;entryX=0.5;entryY=0;entryDx=0;entryDy=0;" edge="1" parent="WIyWlLk6GJQsqaUBKTNV-1" source="Y9hDA8jvn1Iqzjb3GO8k-69" target="Y9hDA8jvn1Iqzjb3GO8k-80">
          <mxGeometry relative="1" as="geometry">
            <Array as="points">
              <mxPoint x="1601.94" y="20" />
              <mxPoint x="1601.94" y="250" />
              <mxPoint x="1525.94" y="250" />
            </Array>
          </mxGeometry>
        </mxCell>
        <mxCell id="Y9hDA8jvn1Iqzjb3GO8k-69" value="i &amp;lt; length" style="rhombus;whiteSpace=wrap;html=1;" vertex="1" parent="WIyWlLk6GJQsqaUBKTNV-1">
          <mxGeometry x="1485.94" y="-20" width="80" height="80" as="geometry" />
        </mxCell>
        <mxCell id="Y9hDA8jvn1Iqzjb3GO8k-70" style="edgeStyle=orthogonalEdgeStyle;rounded=0;orthogonalLoop=1;jettySize=auto;html=1;entryX=0.5;entryY=0;entryDx=0;entryDy=0;" edge="1" parent="WIyWlLk6GJQsqaUBKTNV-1" source="Y9hDA8jvn1Iqzjb3GO8k-71" target="Y9hDA8jvn1Iqzjb3GO8k-90">
          <mxGeometry relative="1" as="geometry">
            <mxPoint x="1525.94" y="180" as="targetPoint" />
          </mxGeometry>
        </mxCell>
        <mxCell id="Y9hDA8jvn1Iqzjb3GO8k-71" value="printf(&quot;%d\t&quot;,&lt;br&gt;array[i]);" style="shape=parallelogram;perimeter=parallelogramPerimeter;whiteSpace=wrap;html=1;fixedSize=1;" vertex="1" parent="WIyWlLk6GJQsqaUBKTNV-1">
          <mxGeometry x="1465.94" y="90" width="120" height="60" as="geometry" />
        </mxCell>
        <mxCell id="Y9hDA8jvn1Iqzjb3GO8k-72" value="Да" style="text;html=1;strokeColor=none;fillColor=none;align=center;verticalAlign=middle;whiteSpace=wrap;rounded=0;" vertex="1" parent="WIyWlLk6GJQsqaUBKTNV-1">
          <mxGeometry x="1525.94" y="60" width="60" height="30" as="geometry" />
        </mxCell>
        <mxCell id="Y9hDA8jvn1Iqzjb3GO8k-73" value="Нет" style="text;html=1;strokeColor=none;fillColor=none;align=center;verticalAlign=middle;whiteSpace=wrap;rounded=0;" vertex="1" parent="WIyWlLk6GJQsqaUBKTNV-1">
          <mxGeometry x="1565.94" y="-15.5" width="40" height="30" as="geometry" />
        </mxCell>
        <mxCell id="Y9hDA8jvn1Iqzjb3GO8k-80" value="Конец" style="ellipse;whiteSpace=wrap;html=1;" vertex="1" parent="WIyWlLk6GJQsqaUBKTNV-1">
          <mxGeometry x="1465.94" y="270" width="120" height="80" as="geometry" />
        </mxCell>
        <mxCell id="Y9hDA8jvn1Iqzjb3GO8k-83" style="edgeStyle=orthogonalEdgeStyle;rounded=0;orthogonalLoop=1;jettySize=auto;html=1;entryX=0.5;entryY=0;entryDx=0;entryDy=0;" edge="1" parent="WIyWlLk6GJQsqaUBKTNV-1" source="Y9hDA8jvn1Iqzjb3GO8k-82" target="Y9hDA8jvn1Iqzjb3GO8k-67">
          <mxGeometry relative="1" as="geometry" />
        </mxCell>
        <mxCell id="Y9hDA8jvn1Iqzjb3GO8k-82" value="&lt;div&gt;void print(int length, int* array)&lt;/div&gt;" style="ellipse;whiteSpace=wrap;html=1;" vertex="1" parent="WIyWlLk6GJQsqaUBKTNV-1">
          <mxGeometry x="1465.94" y="-240" width="120" height="80" as="geometry" />
        </mxCell>
        <mxCell id="Y9hDA8jvn1Iqzjb3GO8k-87" style="edgeStyle=orthogonalEdgeStyle;rounded=0;orthogonalLoop=1;jettySize=auto;html=1;entryX=0.5;entryY=0;entryDx=0;entryDy=0;" edge="1" parent="WIyWlLk6GJQsqaUBKTNV-1" source="Y9hDA8jvn1Iqzjb3GO8k-86" target="Y9hDA8jvn1Iqzjb3GO8k-43">
          <mxGeometry relative="1" as="geometry" />
        </mxCell>
        <mxCell id="Y9hDA8jvn1Iqzjb3GO8k-86" value="i++;" style="rounded=0;whiteSpace=wrap;html=1;" vertex="1" parent="WIyWlLk6GJQsqaUBKTNV-1">
          <mxGeometry x="354" y="780" width="120" height="60" as="geometry" />
        </mxCell>
        <mxCell id="Y9hDA8jvn1Iqzjb3GO8k-91" style="edgeStyle=orthogonalEdgeStyle;rounded=0;orthogonalLoop=1;jettySize=auto;html=1;entryX=0;entryY=0.5;entryDx=0;entryDy=0;" edge="1" parent="WIyWlLk6GJQsqaUBKTNV-1" source="Y9hDA8jvn1Iqzjb3GO8k-90" target="Y9hDA8jvn1Iqzjb3GO8k-69">
          <mxGeometry relative="1" as="geometry">
            <Array as="points">
              <mxPoint x="1439.94" y="215" />
              <mxPoint x="1439.94" y="20" />
            </Array>
          </mxGeometry>
        </mxCell>
        <mxCell id="Y9hDA8jvn1Iqzjb3GO8k-90" value="i++;" style="rounded=0;whiteSpace=wrap;html=1;" vertex="1" parent="WIyWlLk6GJQsqaUBKTNV-1">
          <mxGeometry x="1465.94" y="185" width="120" height="60" as="geometry" />
        </mxCell>
        <mxCell id="Y9hDA8jvn1Iqzjb3GO8k-102" style="edgeStyle=orthogonalEdgeStyle;rounded=0;orthogonalLoop=1;jettySize=auto;html=1;entryX=0.5;entryY=0;entryDx=0;entryDy=0;" edge="1" parent="WIyWlLk6GJQsqaUBKTNV-1" source="Y9hDA8jvn1Iqzjb3GO8k-94" target="Y9hDA8jvn1Iqzjb3GO8k-101">
          <mxGeometry relative="1" as="geometry" />
        </mxCell>
        <mxCell id="Y9hDA8jvn1Iqzjb3GO8k-94" value="&lt;div&gt;print(length, array);&lt;/div&gt;" style="rounded=0;whiteSpace=wrap;html=1;" vertex="1" parent="WIyWlLk6GJQsqaUBKTNV-1">
          <mxGeometry x="354" y="1200" width="120" height="60" as="geometry" />
        </mxCell>
        <mxCell id="Y9hDA8jvn1Iqzjb3GO8k-98" style="edgeStyle=orthogonalEdgeStyle;rounded=0;orthogonalLoop=1;jettySize=auto;html=1;" edge="1" parent="WIyWlLk6GJQsqaUBKTNV-1" source="Y9hDA8jvn1Iqzjb3GO8k-95">
          <mxGeometry relative="1" as="geometry">
            <mxPoint x="670" y="290" as="targetPoint" />
          </mxGeometry>
        </mxCell>
        <mxCell id="Y9hDA8jvn1Iqzjb3GO8k-95" value="void fail();" style="rounded=0;whiteSpace=wrap;html=1;" vertex="1" parent="WIyWlLk6GJQsqaUBKTNV-1">
          <mxGeometry x="510" y="200" width="120" height="60" as="geometry" />
        </mxCell>
        <mxCell id="Y9hDA8jvn1Iqzjb3GO8k-97" style="edgeStyle=orthogonalEdgeStyle;rounded=0;orthogonalLoop=1;jettySize=auto;html=1;" edge="1" parent="WIyWlLk6GJQsqaUBKTNV-1" source="Y9hDA8jvn1Iqzjb3GO8k-96">
          <mxGeometry relative="1" as="geometry">
            <mxPoint x="270" y="1080" as="targetPoint" />
          </mxGeometry>
        </mxCell>
        <mxCell id="Y9hDA8jvn1Iqzjb3GO8k-96" value="void fail();" style="rounded=0;whiteSpace=wrap;html=1;" vertex="1" parent="WIyWlLk6GJQsqaUBKTNV-1">
          <mxGeometry x="354" y="980" width="120" height="60" as="geometry" />
        </mxCell>
        <mxCell id="Y9hDA8jvn1Iqzjb3GO8k-115" style="edgeStyle=orthogonalEdgeStyle;rounded=0;orthogonalLoop=1;jettySize=auto;html=1;entryX=0.5;entryY=0;entryDx=0;entryDy=0;" edge="1" parent="WIyWlLk6GJQsqaUBKTNV-1" source="Y9hDA8jvn1Iqzjb3GO8k-101" target="Y9hDA8jvn1Iqzjb3GO8k-104">
          <mxGeometry relative="1" as="geometry">
            <Array as="points">
              <mxPoint x="710" y="1330" />
              <mxPoint x="710" y="-190" />
              <mxPoint x="846" y="-190" />
            </Array>
          </mxGeometry>
        </mxCell>
        <mxCell id="Y9hDA8jvn1Iqzjb3GO8k-101" value="&amp;nbsp; &amp;nbsp; int pairs = 0;" style="rounded=0;whiteSpace=wrap;html=1;" vertex="1" parent="WIyWlLk6GJQsqaUBKTNV-1">
          <mxGeometry x="354" y="1300" width="120" height="60" as="geometry" />
        </mxCell>
        <mxCell id="Y9hDA8jvn1Iqzjb3GO8k-103" style="edgeStyle=orthogonalEdgeStyle;rounded=0;orthogonalLoop=1;jettySize=auto;html=1;entryX=0.5;entryY=0;entryDx=0;entryDy=0;" edge="1" parent="WIyWlLk6GJQsqaUBKTNV-1" source="Y9hDA8jvn1Iqzjb3GO8k-104" target="Y9hDA8jvn1Iqzjb3GO8k-107">
          <mxGeometry relative="1" as="geometry" />
        </mxCell>
        <mxCell id="Y9hDA8jvn1Iqzjb3GO8k-104" value="int i = 0;" style="rounded=0;whiteSpace=wrap;html=1;" vertex="1" parent="WIyWlLk6GJQsqaUBKTNV-1">
          <mxGeometry x="786" y="-170" width="120" height="60" as="geometry" />
        </mxCell>
        <mxCell id="Y9hDA8jvn1Iqzjb3GO8k-105" style="edgeStyle=orthogonalEdgeStyle;rounded=0;orthogonalLoop=1;jettySize=auto;html=1;exitX=0.5;exitY=1;exitDx=0;exitDy=0;entryX=0.5;entryY=0;entryDx=0;entryDy=0;" edge="1" parent="WIyWlLk6GJQsqaUBKTNV-1" source="Y9hDA8jvn1Iqzjb3GO8k-107" target="Y9hDA8jvn1Iqzjb3GO8k-116">
          <mxGeometry relative="1" as="geometry">
            <mxPoint x="846" y="40" as="targetPoint" />
          </mxGeometry>
        </mxCell>
        <mxCell id="Y9hDA8jvn1Iqzjb3GO8k-122" style="edgeStyle=orthogonalEdgeStyle;rounded=0;orthogonalLoop=1;jettySize=auto;html=1;entryX=0.5;entryY=0;entryDx=0;entryDy=0;" edge="1" parent="WIyWlLk6GJQsqaUBKTNV-1" source="Y9hDA8jvn1Iqzjb3GO8k-107" target="Y9hDA8jvn1Iqzjb3GO8k-121">
          <mxGeometry relative="1" as="geometry">
            <Array as="points">
              <mxPoint x="920" y="-30" />
              <mxPoint x="920" y="330" />
              <mxPoint x="846" y="330" />
            </Array>
          </mxGeometry>
        </mxCell>
        <mxCell id="Y9hDA8jvn1Iqzjb3GO8k-107" value="i &amp;lt; length-1" style="rhombus;whiteSpace=wrap;html=1;" vertex="1" parent="WIyWlLk6GJQsqaUBKTNV-1">
          <mxGeometry x="806" y="-70" width="80" height="80" as="geometry" />
        </mxCell>
        <mxCell id="Y9hDA8jvn1Iqzjb3GO8k-110" value="Да" style="text;html=1;strokeColor=none;fillColor=none;align=center;verticalAlign=middle;whiteSpace=wrap;rounded=0;" vertex="1" parent="WIyWlLk6GJQsqaUBKTNV-1">
          <mxGeometry x="846" y="10" width="60" height="30" as="geometry" />
        </mxCell>
        <mxCell id="Y9hDA8jvn1Iqzjb3GO8k-111" value="Нет" style="text;html=1;strokeColor=none;fillColor=none;align=center;verticalAlign=middle;whiteSpace=wrap;rounded=0;" vertex="1" parent="WIyWlLk6GJQsqaUBKTNV-1">
          <mxGeometry x="886" y="-65.5" width="40" height="30" as="geometry" />
        </mxCell>
        <mxCell id="Y9hDA8jvn1Iqzjb3GO8k-113" style="edgeStyle=orthogonalEdgeStyle;rounded=0;orthogonalLoop=1;jettySize=auto;html=1;entryX=0;entryY=0.5;entryDx=0;entryDy=0;" edge="1" parent="WIyWlLk6GJQsqaUBKTNV-1" source="Y9hDA8jvn1Iqzjb3GO8k-114" target="Y9hDA8jvn1Iqzjb3GO8k-107">
          <mxGeometry relative="1" as="geometry">
            <Array as="points">
              <mxPoint x="760" y="280" />
              <mxPoint x="760" y="-30" />
            </Array>
          </mxGeometry>
        </mxCell>
        <mxCell id="Y9hDA8jvn1Iqzjb3GO8k-114" value="i++;" style="rounded=0;whiteSpace=wrap;html=1;" vertex="1" parent="WIyWlLk6GJQsqaUBKTNV-1">
          <mxGeometry x="786" y="250" width="120" height="60" as="geometry" />
        </mxCell>
        <mxCell id="Y9hDA8jvn1Iqzjb3GO8k-117" style="edgeStyle=orthogonalEdgeStyle;rounded=0;orthogonalLoop=1;jettySize=auto;html=1;entryX=0.5;entryY=0;entryDx=0;entryDy=0;" edge="1" parent="WIyWlLk6GJQsqaUBKTNV-1" source="Y9hDA8jvn1Iqzjb3GO8k-116" target="Y9hDA8jvn1Iqzjb3GO8k-119">
          <mxGeometry relative="1" as="geometry">
            <mxPoint x="846" y="160" as="targetPoint" />
          </mxGeometry>
        </mxCell>
        <mxCell id="Y9hDA8jvn1Iqzjb3GO8k-125" style="edgeStyle=orthogonalEdgeStyle;rounded=0;orthogonalLoop=1;jettySize=auto;html=1;exitX=0;exitY=0.5;exitDx=0;exitDy=0;entryX=0.25;entryY=0;entryDx=0;entryDy=0;" edge="1" parent="WIyWlLk6GJQsqaUBKTNV-1" source="Y9hDA8jvn1Iqzjb3GO8k-116" target="Y9hDA8jvn1Iqzjb3GO8k-114">
          <mxGeometry relative="1" as="geometry">
            <Array as="points">
              <mxPoint x="770" y="90" />
              <mxPoint x="770" y="240" />
              <mxPoint x="816" y="240" />
            </Array>
          </mxGeometry>
        </mxCell>
        <mxCell id="Y9hDA8jvn1Iqzjb3GO8k-116" value="array[i] &amp;lt; array[i + 1]" style="rhombus;whiteSpace=wrap;html=1;" vertex="1" parent="WIyWlLk6GJQsqaUBKTNV-1">
          <mxGeometry x="806" y="49.5" width="80" height="80" as="geometry" />
        </mxCell>
        <mxCell id="Y9hDA8jvn1Iqzjb3GO8k-124" style="edgeStyle=orthogonalEdgeStyle;rounded=0;orthogonalLoop=1;jettySize=auto;html=1;exitX=0.75;exitY=1;exitDx=0;exitDy=0;entryX=0.75;entryY=0;entryDx=0;entryDy=0;" edge="1" parent="WIyWlLk6GJQsqaUBKTNV-1" source="Y9hDA8jvn1Iqzjb3GO8k-119" target="Y9hDA8jvn1Iqzjb3GO8k-114">
          <mxGeometry relative="1" as="geometry" />
        </mxCell>
        <mxCell id="Y9hDA8jvn1Iqzjb3GO8k-119" value="pairs++;" style="rounded=1;whiteSpace=wrap;html=1;" vertex="1" parent="WIyWlLk6GJQsqaUBKTNV-1">
          <mxGeometry x="786" y="160" width="120" height="60" as="geometry" />
        </mxCell>
        <mxCell id="Y9hDA8jvn1Iqzjb3GO8k-129" style="edgeStyle=orthogonalEdgeStyle;rounded=0;orthogonalLoop=1;jettySize=auto;html=1;entryX=0.5;entryY=0;entryDx=0;entryDy=0;" edge="1" parent="WIyWlLk6GJQsqaUBKTNV-1" source="Y9hDA8jvn1Iqzjb3GO8k-121" target="Y9hDA8jvn1Iqzjb3GO8k-128">
          <mxGeometry relative="1" as="geometry" />
        </mxCell>
        <mxCell id="Y9hDA8jvn1Iqzjb3GO8k-121" value="&lt;font style=&quot;font-size: 9px;&quot;&gt;printf(&quot;\nКоличество пар элементов, удовлетворяющих условию x[i]&amp;lt;x[i+1]:\t%d\n&quot;,&lt;br&gt;pairs);&lt;/font&gt;" style="shape=parallelogram;perimeter=parallelogramPerimeter;whiteSpace=wrap;html=1;fixedSize=1;" vertex="1" parent="WIyWlLk6GJQsqaUBKTNV-1">
          <mxGeometry x="774" y="350" width="144" height="70" as="geometry" />
        </mxCell>
        <mxCell id="Y9hDA8jvn1Iqzjb3GO8k-123" value="Да" style="text;html=1;strokeColor=none;fillColor=none;align=center;verticalAlign=middle;whiteSpace=wrap;rounded=0;" vertex="1" parent="WIyWlLk6GJQsqaUBKTNV-1">
          <mxGeometry x="846" y="129.5" width="60" height="30" as="geometry" />
        </mxCell>
        <mxCell id="Y9hDA8jvn1Iqzjb3GO8k-126" value="Нет" style="text;html=1;strokeColor=none;fillColor=none;align=center;verticalAlign=middle;whiteSpace=wrap;rounded=0;" vertex="1" parent="WIyWlLk6GJQsqaUBKTNV-1">
          <mxGeometry x="774" y="60" width="40" height="30" as="geometry" />
        </mxCell>
        <mxCell id="Y9hDA8jvn1Iqzjb3GO8k-128" value="//second&#xa;    int mult = 1;&#xa;    int targetIndex = -1;&#xa;    int tempIndex = 0;&#xa;    for (int i = 0; i &lt; length; i++)&#xa;    {&#xa;        if (array[i] &gt; 0) tempIndex++;&#xa;        if (array[i] == 0) targetIndex = i;&#xa;    }&#xa;    if (targetIndex == -1)&#xa;        printf(&quot;Отсутствуют нулевые элементы в массиве.\n&quot;);&#xa;    else if (targetIndex == length - 1)&#xa;        printf(&quot;После последнего нулевого элемента нет элементов.\n&quot;);&#xa;    else&#xa;    {&#xa;        for (int i = targetIndex + 1; i &lt; length; i++)&#xa;            mult *= array[i];&#xa;        printf(&quot;Произведение элементов массива, расположенных после последнего нулевого элемента:\t%d\n&quot;, mult);&#xa;    }" style="text;whiteSpace=wrap;" vertex="1" parent="WIyWlLk6GJQsqaUBKTNV-1">
          <mxGeometry x="740" y="480" width="560" height="310" as="geometry" />
        </mxCell>
      </root>
    </mxGraphModel>
  </diagram>
</mxfile>
